<svg width="231" height="35" viewBox="0 0 231 35" fill="none" xmlns="http://www.w3.org/2000/svg">
<g clip-path="url(#clip0_75_250)">
<path d="M57.1673 16.8725H52.7394V6.96195H56.9614C60.2848 6.96195 62.4121 8.69759 62.4121 11.9366C62.4121 15.1756 60.3632 16.8725 57.164 16.8725H57.1673ZM56.9222 2.67123H47.5762V31.8062H52.7394V21.1665H56.9189C63.4775 21.1665 67.6178 17.8436 67.6178 11.9398C67.6178 6.03605 63.484 2.67445 56.9254 2.67445L56.9222 2.67123Z" fill="#033325"/>
<path d="M69.9544 11.572V31.8062H74.9542V11.572H69.9544ZM72.451 2.95189C70.6864 2.95189 69.5459 4.04231 69.5459 5.7457C69.5459 7.44908 70.6896 8.49756 72.451 8.49756C74.2124 8.49756 75.3626 7.40714 75.3626 5.7457C75.3626 4.08425 74.1764 2.95189 72.451 2.95189Z" fill="#033325"/>
<path d="M92.6464 11.572L89.7413 18.5307C88.8916 20.6793 87.9341 23.3473 87.2806 25.0475C85.8885 21.0794 83.7546 16.1047 81.9115 11.572H76.6699L85.8101 32.1772H88.7576L97.8978 11.5817L92.6496 11.5688L92.6464 11.572Z" fill="#033325"/>
<path d="M107.378 28.1187C103.98 28.1187 101.391 25.4927 101.391 21.6891C101.391 17.8855 103.973 15.2562 107.378 15.2562C110.783 15.2562 113.378 17.8855 113.378 21.6955C113.378 25.5056 110.829 28.1219 107.378 28.1219V28.1187ZM107.378 11.0494C101.189 11.0494 96.6367 15.5789 96.6367 21.6891C96.6367 27.7993 101.186 32.3256 107.378 32.3256C113.571 32.3256 118.113 27.7961 118.113 21.6891C118.113 15.5821 113.607 11.0494 107.378 11.0494Z" fill="#033325"/>
<path d="M127.782 28.1187C126.266 28.1187 124.952 27.2799 124.952 24.7636V15.4982H130.795V11.572H124.975V5.50373H120.034V24.441C120.034 25.1281 120.077 25.8153 120.077 26.4637C120.322 30.8351 123.436 32.3352 126.55 32.3352C128.769 32.3352 130.527 31.8933 131.472 31.4093V27.2735C130.312 27.7897 129.057 28.0768 127.785 28.1219L127.782 28.1187Z" fill="#033325"/>
<path d="M142.657 16.8725H138.236V6.96195H142.455C145.771 6.96195 147.905 8.69759 147.905 11.9366C147.905 15.1756 145.856 16.8725 142.657 16.8725ZM142.415 2.67123H133.069V31.8062H138.236V21.1665H142.415C148.971 21.1665 153.114 17.8436 153.114 11.9398C153.114 6.03605 148.971 2.67445 142.415 2.67445V2.67123Z" fill="#033325"/>
<path d="M166.143 11.0462C163.313 11.0462 161.179 12.9044 159.911 15.3756C159.869 15.2111 159.911 14.6465 159.911 13.9594C159.911 13.1915 159.869 12.3818 159.83 11.572H155.238V31.8062H160.238V23.1021C160.238 19.3018 162.66 15.7789 166.186 15.7789C166.601 15.795 167.012 15.8499 167.418 15.9434V11.1688C166.999 11.0817 166.571 11.0397 166.143 11.0462Z" fill="#033325"/>
<path d="M169.882 11.572V31.8062H174.881V11.572H169.882ZM172.372 2.95189C170.607 2.95189 169.46 4.04231 169.46 5.7457C169.46 7.44908 170.607 8.49756 172.372 8.49756C174.136 8.49756 175.283 7.40714 175.283 5.7457C175.283 4.08425 174.097 2.95189 172.372 2.95189Z" fill="#033325"/>
<path d="M202.289 11.0462C199.315 11.0462 196.714 12.9851 195.279 15.3756C194.695 13.2561 192.92 11.6624 190.731 11.2914C190.061 11.1365 189.371 11.0817 188.688 11.1268C185.649 11.2914 183.028 13.1915 182.048 15.6176H181.963C182.055 15.1369 182.11 14.6465 182.13 14.1594L182.006 11.572H177.375V31.8062H182.375V22.6989C182.375 19.0953 183.891 15.5401 187.744 15.5401C190.404 15.5401 190.897 17.5984 190.897 19.9051V31.8029H195.897V22.6956C195.897 19.134 197.253 15.5369 201.188 15.5369C203.737 15.5369 204.42 17.5177 204.42 19.9018V31.7997H209.419V19.1372C209.419 13.8787 207.086 11.0462 202.289 11.0462Z" fill="#033325"/>
<path d="M216.557 19.8276C216.802 17.279 218.569 15.0111 221.52 15.0111C224.471 15.0111 226.193 17.2758 226.151 19.8276H216.557ZM231 20.5148C231 15.4821 227.762 11.0494 221.615 11.0494C215.838 11.0494 211.367 15.5789 211.367 21.6891C211.367 27.7993 215.756 32.3256 222.556 32.3256C225.997 32.3256 228.746 31.519 230.203 30.7512V26.4218C228.811 27.2606 225.814 28.0994 222.945 28.0994C219.177 28.0994 216.713 26.083 216.573 22.6795H230.876C230.873 22.3311 230.994 21.4407 230.994 20.5116L231 20.5148Z" fill="#033325"/>
<path d="M24.711 0.00322723H18.0479V6.58125H24.711V0.00322723Z" fill="#4FB968"/>
<path d="M13.5326 0H8.05566V5.40695H13.5326V0Z" fill="#4FB968"/>
<path d="M24.1165 10.9268H18.6396V16.3338H24.1165V10.9268Z" fill="#4FB968"/>
<path d="M23.4073 21.4891H19.3486V25.4959H23.4073V21.4891Z" fill="#4FB968"/>
<path d="M13.0518 11.6269H8.99316V15.6337H13.0518V11.6269Z" fill="#4FB968"/>
<path d="M12.5979 21.7149H9V25.2668H12.5979V21.7149Z" fill="#4FB968"/>
<path d="M3.33969 11.9882H0.00976562V15.2756H3.33969V11.9882Z" fill="#4FB968"/>
<path d="M23.0418 31.7126H19.7119V35H23.0418V31.7126Z" fill="#4FB968"/>
<path d="M35.5282 31.7126H32.1982V35H35.5282V31.7126Z" fill="#4FB968"/>
<path d="M3.32992 0.212929H0V3.50033H3.32992V0.212929Z" fill="#4FB968"/>
<path d="M2.87243 22.073H0V24.9087H2.87243V22.073Z" fill="#4FB968"/>
<path d="M12.2572 31.9481H9.38477V34.7838H12.2572V31.9481Z" fill="#4FB968"/>
<path d="M1.97696 32.8514H0.0195312V34.7838H1.97696V32.8514Z" fill="#4FB968"/>
<path d="M35.5313 10.3429H28.8682V16.9209H35.5313V10.3429Z" fill="#4FB968"/>
<path d="M35.5277 20.789H30.0508V26.196H35.5277V20.789Z" fill="#4FB968"/>
<path d="M35.5313 0.00322723H28.8682V6.58125H35.5313V0.00322723Z" fill="#4FB968"/>
</g>
<defs>
<clipPath id="clip0_75_250">
<rect width="231" height="35" fill="white"/>
</clipPath>
</defs>
</svg>
